<?xml version="1.0" encoding="utf-8" standalone="no"?>
<!DOCTYPE svg PUBLIC "-//W3C//DTD SVG 1.1//EN"
  "http://www.w3.org/Graphics/SVG/1.1/DTD/svg11.dtd">
<svg xmlns:xlink="http://www.w3.org/1999/xlink" width="558.66125pt" height="275.607186pt" viewBox="0 0 558.66125 275.607186" xmlns="http://www.w3.org/2000/svg" version="1.1">
 <metadata>
  <rdf:RDF xmlns:dc="http://purl.org/dc/elements/1.1/" xmlns:cc="http://creativecommons.org/ns#" xmlns:rdf="http://www.w3.org/1999/02/22-rdf-syntax-ns#">
   <cc:Work>
    <dc:type rdf:resource="http://purl.org/dc/dcmitype/StillImage"/>
    <dc:date>2026-09-12T04:02:28.230596</dc:date>
    <dc:format>image/svg+xml</dc:format>
    <dc:creator>
     <cc:Agent>
      <dc:title>Matplotlib v3.11.2, https://matplotlib.org/</dc:title>
     </cc:Agent>
    </dc:creator>
   </cc:Work>
  </rdf:RDF>
 </metadata>
 <defs>
  <style type="text/css">*{stroke-linejoin: round; stroke-linecap: butt}</style>
 </defs>
 <g id="figure_1">
  <g id="patch_1">
   <path d="M 0 275.607186 
L 558.66125 275.607186 
L 558.66125 -0 
L 0 -0 
z
" style="fill: #fcfcfb"/>
  </g>
  <g id="axes_1">
   <g id="patch_2">
    <path d="M 98.570937 184.52825 
L 500.330938 184.52825 
L 500.330938 29.29625 
L 98.570937 29.29625 
z
" style="fill: #fcfcfb"/>
   </g>
   <g id="matplotlib.axis_1">
    <g id="xtick_1">
     <g id="line2d_1">
      <path d="M 141.276989 184.52825 
L 141.276989 29.29625 
" clip-path="url(#p5107d84349)" style="fill: none; stroke: #e1e0d9; stroke-width: 0.8; stroke-linecap: square"/>
     </g>
     <g id="line2d_2"/>
     <g id="text_1">
      <text style="font-size: 9px; font-family: 'Inter'; text-anchor: middle; fill: #52514e" x="141.276989" y="196.747" transform="rotate(-0 141.276989 196.747)">−200</text>
     </g>
    </g>
    <g id="xtick_2">
     <g id="line2d_3">
      <path d="M 220.363963 184.52825 
L 220.363963 29.29625 
" clip-path="url(#p5107d84349)" style="fill: none; stroke: #e1e0d9; stroke-width: 0.8; stroke-linecap: square"/>
     </g>
     <g id="line2d_4"/>
     <g id="text_2">
      <text style="font-size: 9px; font-family: 'Inter'; text-anchor: middle; fill: #52514e" x="220.363963" y="196.747" transform="rotate(-0 220.363963 196.747)">−100</text>
     </g>
    </g>
    <g id="xtick_3">
     <g id="line2d_5">
      <path d="M 299.450938 184.52825 
L 299.450938 29.29625 
" clip-path="url(#p5107d84349)" style="fill: none; stroke: #e1e0d9; stroke-width: 0.8; stroke-linecap: square"/>
     </g>
     <g id="line2d_6"/>
     <g id="text_3">
      <text style="font-size: 9px; font-family: 'Inter'; text-anchor: middle; fill: #52514e" x="299.450938" y="196.747" transform="rotate(-0 299.450938 196.747)">0</text>
     </g>
    </g>
    <g id="xtick_4">
     <g id="line2d_7">
      <path d="M 378.537912 184.52825 
L 378.537912 29.29625 
" clip-path="url(#p5107d84349)" style="fill: none; stroke: #e1e0d9; stroke-width: 0.8; stroke-linecap: square"/>
     </g>
     <g id="line2d_8"/>
     <g id="text_4">
      <text style="font-size: 9px; font-family: 'Inter'; text-anchor: middle; fill: #52514e" x="378.537912" y="196.747" transform="rotate(-0 378.537912 196.747)">100</text>
     </g>
    </g>
    <g id="xtick_5">
     <g id="line2d_9">
      <path d="M 457.624886 184.52825 
L 457.624886 29.29625 
" clip-path="url(#p5107d84349)" style="fill: none; stroke: #e1e0d9; stroke-width: 0.8; stroke-linecap: square"/>
     </g>
     <g id="line2d_10"/>
     <g id="text_5">
      <text style="font-size: 9px; font-family: 'Inter'; text-anchor: middle; fill: #52514e" x="457.624886" y="196.747" transform="rotate(-0 457.624886 196.747)">200</text>
     </g>
    </g>
    <g id="text_6">
     <text style="font-size: 9px; font-family: 'Inter'; text-anchor: middle; fill: #52514e" x="299.450938" y="211.636648" transform="rotate(-0 299.450938 211.636648)">change relative to each system's own baseline (%)</text>
    </g>
   </g>
   <g id="matplotlib.axis_2">
    <g id="ytick_1">
     <g id="line2d_11"/>
     <g id="text_7">
      <text style="font-size: 9px; font-family: 'Inter'; text-anchor: end; fill: #52514e" x="95.070937" y="65.615154" transform="rotate(-0 95.070937 65.615154)">Accuracy</text>
     </g>
    </g>
    <g id="ytick_2">
     <g id="line2d_12"/>
     <g id="text_8">
      <text style="font-size: 9px; font-family: 'Inter'; text-anchor: end; fill: #52514e" x="95.070937" y="111.271625" transform="rotate(-0 95.070937 111.271625)">Cost per question</text>
     </g>
    </g>
    <g id="ytick_3">
     <g id="line2d_13"/>
     <g id="text_9">
      <text style="font-size: 9px; font-family: 'Inter'; text-anchor: end; fill: #52514e" x="95.070937" y="156.928096" transform="rotate(-0 95.070937 156.928096)">Tokens per question</text>
     </g>
    </g>
   </g>
   <g id="patch_3">
    <path d="M 303.468538 60.34265 
L 320.425254 60.34265 
Q 324.442854 60.34265 324.442854 -171.591165 
L 324.442854 277.666394 
Q 324.442854 45.732579 320.425254 45.732579 
L 303.468538 45.732579 
Q 299.450938 45.732579 299.450938 277.666394 
L 299.450938 -171.591165 
Q 299.450938 60.34265 303.468538 60.34265 
z
" clip-path="url(#p5107d84349)" style="fill: #2a78d6"/>
   </g>
   <g id="patch_4">
    <path d="M 299.450938 60.34265 
L 303.468538 60.34265 
L 303.468538 45.732579 
L 299.450938 45.732579 
z
" clip-path="url(#p5107d84349)" style="fill: #2a78d6"/>
   </g>
   <g id="patch_5">
    <path d="M 302.218982 76.778979 
L 302.218982 76.778979 
Q 304.987026 76.778979 304.987026 -83.018668 
L 304.987026 221.966556 
Q 304.987026 62.168909 302.218982 62.168909 
L 302.218982 62.168909 
Q 299.450938 62.168909 299.450938 221.966556 
L 299.450938 -83.018668 
Q 299.450938 76.778979 302.218982 76.778979 
z
" clip-path="url(#p5107d84349)" style="fill: #eb6834"/>
   </g>
   <g id="patch_6">
    <path d="M 299.450938 76.778979 
L 302.218982 76.778979 
L 302.218982 62.168909 
L 299.450938 62.168909 
z
" clip-path="url(#p5107d84349)" style="fill: #eb6834"/>
   </g>
   <g id="patch_7">
    <path d="M 303.468538 105.999121 
L 454.064436 105.999121 
Q 458.082036 105.999121 458.082036 -125.934694 
L 458.082036 323.322865 
Q 458.082036 91.38905 454.064436 91.38905 
L 303.468538 91.38905 
Q 299.450938 91.38905 299.450938 323.322865 
L 299.450938 -125.934694 
Q 299.450938 105.999121 303.468538 105.999121 
z
" clip-path="url(#p5107d84349)" style="fill: #2a78d6"/>
   </g>
   <g id="patch_8">
    <path d="M 299.450938 105.999121 
L 303.468538 105.999121 
L 303.468538 91.38905 
L 299.450938 91.38905 
z
" clip-path="url(#p5107d84349)" style="fill: #2a78d6"/>
   </g>
   <g id="patch_9">
    <path d="M 251.271135 122.43545 
L 295.433337 122.43545 
Q 299.450938 122.43545 299.450938 -109.498365 
L 299.450938 339.759194 
Q 299.450938 107.825379 295.433337 107.825379 
L 251.271135 107.825379 
Q 247.253535 107.825379 247.253535 339.759194 
L 247.253535 -109.498365 
Q 247.253535 122.43545 251.271135 122.43545 
z
" clip-path="url(#p5107d84349)" style="fill: #eb6834"/>
   </g>
   <g id="patch_10">
    <path d="M 247.253535 122.43545 
L 251.271135 122.43545 
L 251.271135 107.825379 
L 247.253535 107.825379 
z
" clip-path="url(#p5107d84349)" style="fill: #eb6834"/>
   </g>
   <g id="patch_11">
    <path d="M 303.468538 151.655591 
L 456.137338 151.655591 
Q 460.154938 151.655591 460.154938 -80.278224 
L 460.154938 368.979335 
Q 460.154938 137.045521 456.137338 137.045521 
L 303.468538 137.045521 
Q 299.450938 137.045521 299.450938 368.979335 
L 299.450938 -80.278224 
Q 299.450938 151.655591 303.468538 151.655591 
z
" clip-path="url(#p5107d84349)" style="fill: #2a78d6"/>
   </g>
   <g id="patch_12">
    <path d="M 299.450938 151.655591 
L 303.468538 151.655591 
L 303.468538 137.045521 
L 299.450938 137.045521 
z
" clip-path="url(#p5107d84349)" style="fill: #2a78d6"/>
   </g>
   <g id="patch_13">
    <path d="M 233.872 168.091921 
L 295.433337 168.091921 
Q 299.450938 168.091921 299.450938 -63.841894 
L 299.450938 385.415665 
Q 299.450938 153.48185 295.433337 153.48185 
L 233.872 153.48185 
Q 229.8544 153.48185 229.8544 385.415665 
L 229.8544 -63.841894 
Q 229.8544 168.091921 233.872 168.091921 
z
" clip-path="url(#p5107d84349)" style="fill: #eb6834"/>
   </g>
   <g id="patch_14">
    <path d="M 229.8544 168.091921 
L 233.872 168.091921 
L 233.872 153.48185 
L 229.8544 153.48185 
z
" clip-path="url(#p5107d84349)" style="fill: #eb6834"/>
   </g>
   <g id="patch_15">
    <path d="M 299.13459 152.568721 
L 299.767285 152.568721 
L 299.767285 152.568721 
L 299.13459 152.568721 
z
" clip-path="url(#p5107d84349)" style="fill: #2a78d6"/>
   </g>
   <g id="patch_16">
    <path d="M 299.13459 152.568721 
L 299.767285 152.568721 
L 299.767285 152.568721 
L 299.13459 152.568721 
z
" clip-path="url(#p5107d84349)" style="fill: #eb6834"/>
   </g>
   <g id="line2d_14">
    <path d="M 299.450938 184.52825 
L 299.450938 29.29625 
" clip-path="url(#p5107d84349)" style="fill: none; stroke: #898781; stroke-linecap: square"/>
   </g>
   <g id="text_10">
    <text style="font-size: 8px; font-family: 'Inter'; text-anchor: start; fill: #52514e" x="327.456054" y="55.947771" transform="rotate(-0 327.456054 55.947771)">+32%</text>
   </g>
   <g id="text_11">
    <text style="font-size: 8px; font-family: 'Inter'; text-anchor: start; fill: #52514e" x="308.000226" y="72.3841" transform="rotate(-0 308.000226 72.3841)">+7%</text>
   </g>
   <g id="text_12">
    <text style="font-size: 8px; font-family: 'Inter'; text-anchor: start; fill: #52514e" x="461.095236" y="101.604242" transform="rotate(-0 461.095236 101.604242)">+201%</text>
   </g>
   <g id="text_13">
    <text style="font-size: 8px; font-family: 'Inter'; text-anchor: end; fill: #52514e" x="244.240335" y="118.040571" transform="rotate(-0 244.240335 118.040571)">-66%</text>
   </g>
   <g id="text_14">
    <text style="font-size: 8px; font-family: 'Inter'; text-anchor: start; fill: #52514e" x="463.168138" y="147.260712" transform="rotate(-0 463.168138 147.260712)">+203%</text>
   </g>
   <g id="text_15">
    <text style="font-size: 8px; font-family: 'Inter'; text-anchor: end; fill: #52514e" x="226.8412" y="163.697042" transform="rotate(-0 226.8412 163.697042)">-88%</text>
   </g>
   <g id="text_16">
    <text style="font-weight: 600; font-size: 11px; font-family: 'Inter'; text-anchor: start; fill: #0b0b0b" x="98.570937" y="19.29625" transform="rotate(-0 98.570937 19.29625)">Agentic mode relative to its baseline: our measurement and Google's published claim</text>
   </g>
   <g id="legend_1">
    <g id="patch_17">
     <path d="M 152.828594 246.982225 
L 169.828594 246.982225 
L 169.828594 241.032225 
L 152.828594 241.032225 
z
" style="fill: #2a78d6"/>
    </g>
    <g id="text_17">
     <text style="font-size: 8.5px; font-family: 'Inter'; text-anchor: start" x="176.628594" y="246.982225" transform="rotate(-0 176.628594 246.982225)">VideoIndex agent vs retrieval-only (measured, 52 questions)</text>
    </g>
    <g id="patch_18">
     <path d="M 152.828594 261.516893 
L 169.828594 261.516893 
L 169.828594 255.566893 
L 152.828594 255.566893 
z
" style="fill: #eb6834"/>
    </g>
    <g id="text_18">
     <text style="font-size: 8.5px; font-family: 'Inter'; text-anchor: start" x="176.628594" y="261.516893" transform="rotate(-0 176.628594 261.516893)">Gemini agentic vs static (Google's 'up to' claims, LongVideoBench)</text>
    </g>
   </g>
  </g>
 </g>
 <defs>
  <clipPath id="p5107d84349">
   <rect x="98.570937" y="29.29625" width="401.76" height="155.232"/>
  </clipPath>
 </defs>
</svg>
